<mxfile host="app.diagrams.net" modified="2021-04-20T15:06:31.501Z" agent="5.0 (Macintosh; Intel Mac OS X 10_15_4) AppleWebKit/537.36 (KHTML, like Gecko) Chrome/89.0.4389.114 Safari/537.36" etag="a0whTKbj0vvmi2NwvDzD" version="14.6.3" type="github" pages="2">
  <diagram id="nm_6PKjCeTmGM0uItTuz" name="IoC AOP">
    <mxGraphModel dx="995" dy="1109" grid="1" gridSize="10" guides="1" tooltips="1" connect="1" arrows="1" fold="1" page="1" pageScale="1" pageWidth="4681" pageHeight="3300" math="1" shadow="0">
      <root>
        <mxCell id="0" />
        <mxCell id="1" parent="0" />
        <mxCell id="5wT7CiSWt6S8VLGtYFsr-8" style="edgeStyle=orthogonalEdgeStyle;rounded=0;orthogonalLoop=1;jettySize=auto;html=1;exitX=1;exitY=0.5;exitDx=0;exitDy=0;entryX=0;entryY=0.35;entryDx=0;entryDy=0;entryPerimeter=0;" parent="1" source="5wT7CiSWt6S8VLGtYFsr-1" target="5wT7CiSWt6S8VLGtYFsr-3" edge="1">
          <mxGeometry relative="1" as="geometry" />
        </mxCell>
        <mxCell id="5wT7CiSWt6S8VLGtYFsr-1" value="XML" style="rounded=0;whiteSpace=wrap;html=1;" parent="1" vertex="1">
          <mxGeometry x="120" y="360" width="120" height="40" as="geometry" />
        </mxCell>
        <mxCell id="5wT7CiSWt6S8VLGtYFsr-9" style="edgeStyle=orthogonalEdgeStyle;rounded=0;orthogonalLoop=1;jettySize=auto;html=1;exitX=1;exitY=0.5;exitDx=0;exitDy=0;entryX=-0.033;entryY=0.548;entryDx=0;entryDy=0;entryPerimeter=0;" parent="1" source="5wT7CiSWt6S8VLGtYFsr-2" target="5wT7CiSWt6S8VLGtYFsr-3" edge="1">
          <mxGeometry relative="1" as="geometry" />
        </mxCell>
        <mxCell id="5wT7CiSWt6S8VLGtYFsr-2" value="配置" style="rounded=0;whiteSpace=wrap;html=1;" parent="1" vertex="1">
          <mxGeometry x="120" y="440" width="120" height="40" as="geometry" />
        </mxCell>
        <mxCell id="5wT7CiSWt6S8VLGtYFsr-3" value="抽象接口&lt;br&gt;定义读取配置项规范&lt;br&gt;BeanDefinitionReader" style="rounded=0;whiteSpace=wrap;html=1;" parent="1" vertex="1">
          <mxGeometry x="280" y="240" width="120" height="400" as="geometry" />
        </mxCell>
        <mxCell id="5wT7CiSWt6S8VLGtYFsr-4" value="" style="rounded=0;whiteSpace=wrap;html=1;" parent="1" vertex="1">
          <mxGeometry x="440" y="240" width="440" height="400" as="geometry" />
        </mxCell>
        <mxCell id="5wT7CiSWt6S8VLGtYFsr-13" style="edgeStyle=orthogonalEdgeStyle;rounded=0;orthogonalLoop=1;jettySize=auto;html=1;exitX=0.5;exitY=0;exitDx=0;exitDy=0;entryX=0.205;entryY=0.975;entryDx=0;entryDy=0;entryPerimeter=0;" parent="1" source="5wT7CiSWt6S8VLGtYFsr-5" target="5wT7CiSWt6S8VLGtYFsr-7" edge="1">
          <mxGeometry relative="1" as="geometry" />
        </mxCell>
        <mxCell id="5wT7CiSWt6S8VLGtYFsr-29" style="edgeStyle=orthogonalEdgeStyle;rounded=0;orthogonalLoop=1;jettySize=auto;html=1;exitX=1;exitY=0.5;exitDx=0;exitDy=0;entryX=0;entryY=0.5;entryDx=0;entryDy=0;dashed=1;" parent="1" source="5wT7CiSWt6S8VLGtYFsr-5" target="5wT7CiSWt6S8VLGtYFsr-15" edge="1">
          <mxGeometry relative="1" as="geometry" />
        </mxCell>
        <mxCell id="5wT7CiSWt6S8VLGtYFsr-31" value="实例化" style="edgeLabel;html=1;align=center;verticalAlign=middle;resizable=0;points=[];" parent="5wT7CiSWt6S8VLGtYFsr-29" vertex="1" connectable="0">
          <mxGeometry x="0.0842" y="-1" relative="1" as="geometry">
            <mxPoint as="offset" />
          </mxGeometry>
        </mxCell>
        <mxCell id="5wT7CiSWt6S8VLGtYFsr-5" value="bean 元数据信息&lt;br&gt;BeanDefinition" style="rounded=0;whiteSpace=wrap;html=1;" parent="1" vertex="1">
          <mxGeometry x="470" y="550" width="120" height="40" as="geometry" />
        </mxCell>
        <mxCell id="5wT7CiSWt6S8VLGtYFsr-33" style="rounded=0;orthogonalLoop=1;jettySize=auto;html=1;exitX=0;exitY=0.5;exitDx=0;exitDy=0;entryX=1;entryY=0.5;entryDx=0;entryDy=0;dashed=1;" parent="1" source="5wT7CiSWt6S8VLGtYFsr-6" target="5wT7CiSWt6S8VLGtYFsr-32" edge="1">
          <mxGeometry relative="1" as="geometry" />
        </mxCell>
        <mxCell id="5wT7CiSWt6S8VLGtYFsr-6" value="BeanFactroyPostProcessor" style="rounded=0;whiteSpace=wrap;html=1;" parent="1" vertex="1">
          <mxGeometry x="450" y="380" width="160" height="40" as="geometry" />
        </mxCell>
        <mxCell id="5wT7CiSWt6S8VLGtYFsr-22" style="edgeStyle=orthogonalEdgeStyle;rounded=0;orthogonalLoop=1;jettySize=auto;html=1;exitX=0.75;exitY=1;exitDx=0;exitDy=0;" parent="1" source="5wT7CiSWt6S8VLGtYFsr-7" target="5wT7CiSWt6S8VLGtYFsr-15" edge="1">
          <mxGeometry relative="1" as="geometry" />
        </mxCell>
        <mxCell id="5wT7CiSWt6S8VLGtYFsr-24" value="反射" style="edgeLabel;html=1;align=center;verticalAlign=middle;resizable=0;points=[];" parent="5wT7CiSWt6S8VLGtYFsr-22" vertex="1" connectable="0">
          <mxGeometry x="-0.1667" y="-1" relative="1" as="geometry">
            <mxPoint as="offset" />
          </mxGeometry>
        </mxCell>
        <mxCell id="5wT7CiSWt6S8VLGtYFsr-7" value="BeanFactory" style="rounded=0;whiteSpace=wrap;html=1;" parent="1" vertex="1">
          <mxGeometry x="440" y="120" width="440" height="80" as="geometry" />
        </mxCell>
        <mxCell id="5wT7CiSWt6S8VLGtYFsr-10" style="edgeStyle=orthogonalEdgeStyle;rounded=0;orthogonalLoop=1;jettySize=auto;html=1;" parent="1" target="5wT7CiSWt6S8VLGtYFsr-5" edge="1">
          <mxGeometry relative="1" as="geometry">
            <mxPoint x="400" y="570" as="sourcePoint" />
          </mxGeometry>
        </mxCell>
        <mxCell id="5wT7CiSWt6S8VLGtYFsr-25" style="edgeStyle=orthogonalEdgeStyle;rounded=0;orthogonalLoop=1;jettySize=auto;html=1;exitX=0.5;exitY=1;exitDx=0;exitDy=0;entryX=0.5;entryY=0;entryDx=0;entryDy=0;" parent="1" source="5wT7CiSWt6S8VLGtYFsr-15" target="5wT7CiSWt6S8VLGtYFsr-21" edge="1">
          <mxGeometry relative="1" as="geometry" />
        </mxCell>
        <mxCell id="5wT7CiSWt6S8VLGtYFsr-15" value="实例化 bean" style="rounded=0;whiteSpace=wrap;html=1;" parent="1" vertex="1">
          <mxGeometry x="690" y="270" width="160" height="40" as="geometry" />
        </mxCell>
        <mxCell id="5wT7CiSWt6S8VLGtYFsr-16" value="填充属性" style="rounded=0;whiteSpace=wrap;html=1;" parent="1" vertex="1">
          <mxGeometry x="690" y="330" width="160" height="40" as="geometry" />
        </mxCell>
        <mxCell id="5wT7CiSWt6S8VLGtYFsr-34" style="edgeStyle=none;rounded=0;orthogonalLoop=1;jettySize=auto;html=1;exitX=0;exitY=0.5;exitDx=0;exitDy=0;entryX=1;entryY=0.75;entryDx=0;entryDy=0;dashed=1;" parent="1" source="5wT7CiSWt6S8VLGtYFsr-17" target="5wT7CiSWt6S8VLGtYFsr-32" edge="1">
          <mxGeometry relative="1" as="geometry" />
        </mxCell>
        <mxCell id="GqFSJLpoRAy94oLkbDO3-5" style="edgeStyle=none;rounded=0;orthogonalLoop=1;jettySize=auto;html=1;exitX=0;exitY=0.5;exitDx=0;exitDy=0;entryX=0.5;entryY=0;entryDx=0;entryDy=0;dashed=1;" parent="1" source="5wT7CiSWt6S8VLGtYFsr-17" target="GqFSJLpoRAy94oLkbDO3-1" edge="1">
          <mxGeometry relative="1" as="geometry" />
        </mxCell>
        <mxCell id="5wT7CiSWt6S8VLGtYFsr-17" value="BeanPostProcessor:before()" style="rounded=0;whiteSpace=wrap;html=1;" parent="1" vertex="1">
          <mxGeometry x="690" y="390" width="160" height="40" as="geometry" />
        </mxCell>
        <mxCell id="5wT7CiSWt6S8VLGtYFsr-35" style="edgeStyle=none;rounded=0;orthogonalLoop=1;jettySize=auto;html=1;exitX=0;exitY=0.5;exitDx=0;exitDy=0;dashed=1;" parent="1" source="5wT7CiSWt6S8VLGtYFsr-19" edge="1">
          <mxGeometry relative="1" as="geometry">
            <mxPoint x="340" y="170" as="targetPoint" />
          </mxGeometry>
        </mxCell>
        <mxCell id="GqFSJLpoRAy94oLkbDO3-6" style="edgeStyle=none;rounded=0;orthogonalLoop=1;jettySize=auto;html=1;exitX=0;exitY=0.5;exitDx=0;exitDy=0;dashed=1;entryX=0.5;entryY=0;entryDx=0;entryDy=0;" parent="1" source="5wT7CiSWt6S8VLGtYFsr-19" target="GqFSJLpoRAy94oLkbDO3-1" edge="1">
          <mxGeometry relative="1" as="geometry">
            <mxPoint x="580" y="650" as="targetPoint" />
          </mxGeometry>
        </mxCell>
        <mxCell id="5wT7CiSWt6S8VLGtYFsr-19" value="BeanPostProcessor:after()" style="rounded=0;whiteSpace=wrap;html=1;" parent="1" vertex="1">
          <mxGeometry x="690" y="510" width="160" height="40" as="geometry" />
        </mxCell>
        <mxCell id="5wT7CiSWt6S8VLGtYFsr-20" value="执行 bean 的 init() 方法" style="rounded=0;whiteSpace=wrap;html=1;" parent="1" vertex="1">
          <mxGeometry x="690" y="450" width="160" height="40" as="geometry" />
        </mxCell>
        <mxCell id="5wT7CiSWt6S8VLGtYFsr-26" style="edgeStyle=orthogonalEdgeStyle;rounded=0;orthogonalLoop=1;jettySize=auto;html=1;exitX=0.5;exitY=1;exitDx=0;exitDy=0;entryX=0.5;entryY=0;entryDx=0;entryDy=0;" parent="1" source="5wT7CiSWt6S8VLGtYFsr-21" target="5wT7CiSWt6S8VLGtYFsr-27" edge="1">
          <mxGeometry relative="1" as="geometry">
            <mxPoint x="770" y="670" as="targetPoint" />
          </mxGeometry>
        </mxCell>
        <mxCell id="5wT7CiSWt6S8VLGtYFsr-21" value="完整 bean" style="rounded=0;whiteSpace=wrap;html=1;" parent="1" vertex="1">
          <mxGeometry x="690" y="580" width="160" height="40" as="geometry" />
        </mxCell>
        <mxCell id="5wT7CiSWt6S8VLGtYFsr-27" value="getBean()" style="ellipse;whiteSpace=wrap;html=1;" parent="1" vertex="1">
          <mxGeometry x="710" y="665" width="120" height="45" as="geometry" />
        </mxCell>
        <mxCell id="5wT7CiSWt6S8VLGtYFsr-32" value="PostProcessor 可以有多个" style="text;html=1;strokeColor=none;fillColor=none;align=center;verticalAlign=middle;whiteSpace=wrap;rounded=0;" parent="1" vertex="1">
          <mxGeometry x="180" y="160" width="160" height="20" as="geometry" />
        </mxCell>
        <mxCell id="5wT7CiSWt6S8VLGtYFsr-36" value="Environment，Listener" style="rounded=1;whiteSpace=wrap;html=1;" parent="1" vertex="1">
          <mxGeometry x="120" y="720" width="760" height="80" as="geometry" />
        </mxCell>
        <mxCell id="GqFSJLpoRAy94oLkbDO3-1" value="动态代理 AOP" style="text;html=1;strokeColor=none;fillColor=none;align=center;verticalAlign=middle;whiteSpace=wrap;rounded=0;" parent="1" vertex="1">
          <mxGeometry x="570" y="665" width="120" height="40" as="geometry" />
        </mxCell>
        <mxCell id="mlu_dV4eUoj4aVVZzx1E-1" value="&lt;pre style=&quot;background-color: #ffffff ; color: #000000 ; font-family: &amp;quot;courier&amp;quot; , monospace ; font-size: 12.0pt&quot;&gt;&lt;span style=&quot;color: #000080 ; font-weight: bold&quot;&gt;public void &lt;/span&gt;refresh() &lt;span style=&quot;color: #000080 ; font-weight: bold&quot;&gt;throws &lt;/span&gt;BeansException, IllegalStateException {&lt;br&gt;   &lt;span style=&quot;color: #000080 ; font-weight: bold&quot;&gt;synchronized &lt;/span&gt;(&lt;span style=&quot;color: #000080 ; font-weight: bold&quot;&gt;this&lt;/span&gt;.&lt;span style=&quot;color: #660e7a ; font-weight: bold&quot;&gt;startupShutdownMonitor&lt;/span&gt;) {&lt;br&gt;      &lt;span style=&quot;color: #808080 ; font-style: italic&quot;&gt;// Prepare this context for refreshing.&lt;br&gt;&lt;/span&gt;&lt;span style=&quot;color: #808080 ; font-style: italic&quot;&gt;      &lt;/span&gt;prepareRefresh();&lt;br&gt;&lt;br&gt;      &lt;span style=&quot;color: #808080 ; font-style: italic&quot;&gt;// Tell the subclass to refresh the internal bean factory.&lt;br&gt;&lt;/span&gt;&lt;span style=&quot;color: #808080 ; font-style: italic&quot;&gt;      &lt;/span&gt;ConfigurableListableBeanFactory beanFactory = obtainFreshBeanFactory();&lt;br&gt;&lt;br&gt;      &lt;span style=&quot;color: #808080 ; font-style: italic&quot;&gt;// Prepare the bean factory for use in this context.&lt;br&gt;&lt;/span&gt;&lt;span style=&quot;color: #808080 ; font-style: italic&quot;&gt;      &lt;/span&gt;prepareBeanFactory(beanFactory);&lt;br&gt;&lt;br&gt;      &lt;span style=&quot;color: #000080 ; font-weight: bold&quot;&gt;try &lt;/span&gt;{&lt;br&gt;         &lt;span style=&quot;color: #808080 ; font-style: italic&quot;&gt;// Allows post-processing of the bean factory in context subclasses.&lt;br&gt;&lt;/span&gt;&lt;span style=&quot;color: #808080 ; font-style: italic&quot;&gt;         &lt;/span&gt;postProcessBeanFactory(beanFactory);&lt;br&gt;&lt;br&gt;         &lt;span style=&quot;color: #808080 ; font-style: italic&quot;&gt;// Invoke factory processors registered as beans in the context.&lt;br&gt;&lt;/span&gt;&lt;span style=&quot;color: #808080 ; font-style: italic&quot;&gt;         &lt;/span&gt;invokeBeanFactoryPostProcessors(beanFactory);&lt;br&gt;&lt;br&gt;         &lt;span style=&quot;color: #808080 ; font-style: italic&quot;&gt;// Register bean processors that intercept bean creation.&lt;br&gt;&lt;/span&gt;&lt;span style=&quot;color: #808080 ; font-style: italic&quot;&gt;         &lt;/span&gt;registerBeanPostProcessors(beanFactory);&lt;br&gt;&lt;br&gt;         &lt;span style=&quot;color: #808080 ; font-style: italic&quot;&gt;// Initialize message source for this context.&lt;br&gt;&lt;/span&gt;&lt;span style=&quot;color: #808080 ; font-style: italic&quot;&gt;         &lt;/span&gt;initMessageSource();&lt;br&gt;&lt;br&gt;         &lt;span style=&quot;color: #808080 ; font-style: italic&quot;&gt;// Initialize event multicaster for this context.&lt;br&gt;&lt;/span&gt;&lt;span style=&quot;color: #808080 ; font-style: italic&quot;&gt;         &lt;/span&gt;initApplicationEventMulticaster();&lt;br&gt;&lt;br&gt;         &lt;span style=&quot;color: #808080 ; font-style: italic&quot;&gt;// Initialize other special beans in specific context subclasses.&lt;br&gt;&lt;/span&gt;&lt;span style=&quot;color: #808080 ; font-style: italic&quot;&gt;         &lt;/span&gt;onRefresh();&lt;br&gt;&lt;br&gt;         &lt;span style=&quot;color: #808080 ; font-style: italic&quot;&gt;// Check for listener beans and register them.&lt;br&gt;&lt;/span&gt;&lt;span style=&quot;color: #808080 ; font-style: italic&quot;&gt;         &lt;/span&gt;registerListeners();&lt;br&gt;&lt;br&gt;         &lt;span style=&quot;color: #808080 ; font-style: italic&quot;&gt;// Instantiate all remaining (non-lazy-init) singletons.&lt;br&gt;&lt;/span&gt;&lt;span style=&quot;color: #808080 ; font-style: italic&quot;&gt;         &lt;/span&gt;finishBeanFactoryInitialization(beanFactory);&lt;br&gt;&lt;br&gt;         &lt;span style=&quot;color: #808080 ; font-style: italic&quot;&gt;// Last step: publish corresponding event.&lt;br&gt;&lt;/span&gt;&lt;span style=&quot;color: #808080 ; font-style: italic&quot;&gt;         &lt;/span&gt;finishRefresh();&lt;br&gt;      }&lt;br&gt;&lt;br&gt;      &lt;span style=&quot;color: #000080 ; font-weight: bold&quot;&gt;catch &lt;/span&gt;(BeansException ex) {&lt;br&gt;         &lt;span style=&quot;color: #000080 ; font-weight: bold&quot;&gt;if &lt;/span&gt;(&lt;span style=&quot;color: #660e7a ; font-weight: bold&quot;&gt;logger&lt;/span&gt;.isWarnEnabled()) {&lt;br&gt;            &lt;span style=&quot;color: #660e7a ; font-weight: bold&quot;&gt;logger&lt;/span&gt;.warn(&lt;span style=&quot;color: #008000 ; font-weight: bold&quot;&gt;&quot;Exception encountered during context initialization - &quot; &lt;/span&gt;+&lt;br&gt;                  &lt;span style=&quot;color: #008000 ; font-weight: bold&quot;&gt;&quot;cancelling refresh attempt: &quot; &lt;/span&gt;+ ex);&lt;br&gt;         }&lt;br&gt;&lt;br&gt;         &lt;span style=&quot;color: #808080 ; font-style: italic&quot;&gt;// Destroy already created singletons to avoid dangling resources.&lt;br&gt;&lt;/span&gt;&lt;span style=&quot;color: #808080 ; font-style: italic&quot;&gt;         &lt;/span&gt;destroyBeans();&lt;br&gt;&lt;br&gt;         &lt;span style=&quot;color: #808080 ; font-style: italic&quot;&gt;// Reset &#39;active&#39; flag.&lt;br&gt;&lt;/span&gt;&lt;span style=&quot;color: #808080 ; font-style: italic&quot;&gt;         &lt;/span&gt;cancelRefresh(ex);&lt;br&gt;&lt;br&gt;         &lt;span style=&quot;color: #808080 ; font-style: italic&quot;&gt;// Propagate exception to caller.&lt;br&gt;&lt;/span&gt;&lt;span style=&quot;color: #808080 ; font-style: italic&quot;&gt;         &lt;/span&gt;&lt;span style=&quot;color: #000080 ; font-weight: bold&quot;&gt;throw &lt;/span&gt;ex;&lt;br&gt;      }&lt;br&gt;&lt;br&gt;      &lt;span style=&quot;color: #000080 ; font-weight: bold&quot;&gt;finally &lt;/span&gt;{&lt;br&gt;         &lt;span style=&quot;color: #808080 ; font-style: italic&quot;&gt;// Reset common introspection caches in Spring&#39;s core, since we&lt;br&gt;&lt;/span&gt;&lt;span style=&quot;color: #808080 ; font-style: italic&quot;&gt;         // might not ever need metadata for singleton beans anymore...&lt;br&gt;&lt;/span&gt;&lt;span style=&quot;color: #808080 ; font-style: italic&quot;&gt;         &lt;/span&gt;resetCommonCaches();&lt;br&gt;      }&lt;br&gt;   }&lt;br&gt;}&lt;/pre&gt;" style="text;whiteSpace=wrap;html=1;" parent="1" vertex="1">
          <mxGeometry x="1080" y="160" width="790" height="1220" as="geometry" />
        </mxCell>
        <mxCell id="mlu_dV4eUoj4aVVZzx1E-2" value="&lt;b&gt;&lt;font style=&quot;font-size: 18px&quot;&gt;AbstractApplicationContext.refresh()&lt;/font&gt;&lt;/b&gt;" style="text;html=1;strokeColor=none;fillColor=none;align=center;verticalAlign=middle;whiteSpace=wrap;rounded=0;" parent="1" vertex="1">
          <mxGeometry x="1080" y="120" width="320" height="40" as="geometry" />
        </mxCell>
        <mxCell id="o5jobzLG0EfzZv0hcuR7-8" style="rounded=0;orthogonalLoop=1;jettySize=auto;html=1;exitX=1;exitY=0.5;exitDx=0;exitDy=0;entryX=0;entryY=0.5;entryDx=0;entryDy=0;" edge="1" parent="1" source="o5jobzLG0EfzZv0hcuR7-1" target="o5jobzLG0EfzZv0hcuR7-2">
          <mxGeometry relative="1" as="geometry" />
        </mxCell>
        <mxCell id="o5jobzLG0EfzZv0hcuR7-9" style="edgeStyle=none;rounded=0;orthogonalLoop=1;jettySize=auto;html=1;exitX=1;exitY=0.5;exitDx=0;exitDy=0;entryX=0;entryY=0.5;entryDx=0;entryDy=0;" edge="1" parent="1" source="o5jobzLG0EfzZv0hcuR7-1" target="o5jobzLG0EfzZv0hcuR7-3">
          <mxGeometry relative="1" as="geometry" />
        </mxCell>
        <mxCell id="o5jobzLG0EfzZv0hcuR7-10" style="edgeStyle=none;rounded=0;orthogonalLoop=1;jettySize=auto;html=1;exitX=1;exitY=0.5;exitDx=0;exitDy=0;entryX=0;entryY=0.5;entryDx=0;entryDy=0;" edge="1" parent="1" source="o5jobzLG0EfzZv0hcuR7-1" target="o5jobzLG0EfzZv0hcuR7-4">
          <mxGeometry relative="1" as="geometry" />
        </mxCell>
        <mxCell id="o5jobzLG0EfzZv0hcuR7-11" style="edgeStyle=none;rounded=0;orthogonalLoop=1;jettySize=auto;html=1;exitX=1;exitY=0.5;exitDx=0;exitDy=0;entryX=-0.017;entryY=0.617;entryDx=0;entryDy=0;entryPerimeter=0;" edge="1" parent="1" source="o5jobzLG0EfzZv0hcuR7-1" target="o5jobzLG0EfzZv0hcuR7-5">
          <mxGeometry relative="1" as="geometry" />
        </mxCell>
        <mxCell id="o5jobzLG0EfzZv0hcuR7-1" value="IoC 容器维护的 bean" style="rounded=0;whiteSpace=wrap;html=1;" vertex="1" parent="1">
          <mxGeometry x="120" y="960" width="140" height="60" as="geometry" />
        </mxCell>
        <mxCell id="o5jobzLG0EfzZv0hcuR7-2" value="BeanFactoryPostProcessor" style="rounded=0;whiteSpace=wrap;html=1;" vertex="1" parent="1">
          <mxGeometry x="320" y="840" width="220" height="60" as="geometry" />
        </mxCell>
        <mxCell id="o5jobzLG0EfzZv0hcuR7-3" value="BeanPostProcessor" style="rounded=0;whiteSpace=wrap;html=1;" vertex="1" parent="1">
          <mxGeometry x="320" y="920" width="120" height="60" as="geometry" />
        </mxCell>
        <mxCell id="o5jobzLG0EfzZv0hcuR7-4" value="用户自定义" style="rounded=0;whiteSpace=wrap;html=1;" vertex="1" parent="1">
          <mxGeometry x="320" y="1000" width="120" height="60" as="geometry" />
        </mxCell>
        <mxCell id="o5jobzLG0EfzZv0hcuR7-7" value="" style="edgeStyle=orthogonalEdgeStyle;rounded=0;orthogonalLoop=1;jettySize=auto;html=1;" edge="1" parent="1" source="o5jobzLG0EfzZv0hcuR7-5" target="o5jobzLG0EfzZv0hcuR7-6">
          <mxGeometry relative="1" as="geometry" />
        </mxCell>
        <mxCell id="o5jobzLG0EfzZv0hcuR7-5" value="Advice" style="rounded=0;whiteSpace=wrap;html=1;" vertex="1" parent="1">
          <mxGeometry x="320" y="1080" width="120" height="60" as="geometry" />
        </mxCell>
        <mxCell id="o5jobzLG0EfzZv0hcuR7-6" value="MethodInterceptor" style="whiteSpace=wrap;html=1;rounded=0;" vertex="1" parent="1">
          <mxGeometry x="520" y="1080" width="120" height="60" as="geometry" />
        </mxCell>
        <mxCell id="Tkmjbffn96KJUI1wK2ei-1" value="" style="edgeStyle=orthogonalEdgeStyle;rounded=0;orthogonalLoop=1;jettySize=auto;html=1;" edge="1" parent="1" source="Tkmjbffn96KJUI1wK2ei-3" target="Tkmjbffn96KJUI1wK2ei-7">
          <mxGeometry relative="1" as="geometry" />
        </mxCell>
        <mxCell id="Tkmjbffn96KJUI1wK2ei-2" value="" style="edgeStyle=orthogonalEdgeStyle;rounded=0;orthogonalLoop=1;jettySize=auto;html=1;" edge="1" parent="1" source="Tkmjbffn96KJUI1wK2ei-3" target="Tkmjbffn96KJUI1wK2ei-18">
          <mxGeometry relative="1" as="geometry" />
        </mxCell>
        <mxCell id="Tkmjbffn96KJUI1wK2ei-3" value="AOP" style="rounded=0;whiteSpace=wrap;html=1;" vertex="1" parent="1">
          <mxGeometry x="120" y="1200" width="120" height="60" as="geometry" />
        </mxCell>
        <mxCell id="Tkmjbffn96KJUI1wK2ei-4" value="" style="edgeStyle=orthogonalEdgeStyle;rounded=0;orthogonalLoop=1;jettySize=auto;html=1;" edge="1" parent="1" source="Tkmjbffn96KJUI1wK2ei-7" target="Tkmjbffn96KJUI1wK2ei-10">
          <mxGeometry relative="1" as="geometry" />
        </mxCell>
        <mxCell id="Tkmjbffn96KJUI1wK2ei-5" value="" style="edgeStyle=orthogonalEdgeStyle;rounded=0;orthogonalLoop=1;jettySize=auto;html=1;" edge="1" parent="1" source="Tkmjbffn96KJUI1wK2ei-7" target="Tkmjbffn96KJUI1wK2ei-19">
          <mxGeometry relative="1" as="geometry" />
        </mxCell>
        <mxCell id="Tkmjbffn96KJUI1wK2ei-6" style="edgeStyle=orthogonalEdgeStyle;rounded=0;orthogonalLoop=1;jettySize=auto;html=1;exitX=1;exitY=0.5;exitDx=0;exitDy=0;entryX=0;entryY=0.5;entryDx=0;entryDy=0;" edge="1" parent="1" source="Tkmjbffn96KJUI1wK2ei-7" target="Tkmjbffn96KJUI1wK2ei-21">
          <mxGeometry relative="1" as="geometry" />
        </mxCell>
        <mxCell id="Tkmjbffn96KJUI1wK2ei-7" value="面向切面编程" style="rounded=0;whiteSpace=wrap;html=1;" vertex="1" parent="1">
          <mxGeometry x="320" y="1200" width="120" height="60" as="geometry" />
        </mxCell>
        <mxCell id="Tkmjbffn96KJUI1wK2ei-8" value="" style="edgeStyle=orthogonalEdgeStyle;rounded=0;orthogonalLoop=1;jettySize=auto;html=1;" edge="1" parent="1" source="Tkmjbffn96KJUI1wK2ei-10" target="Tkmjbffn96KJUI1wK2ei-11">
          <mxGeometry relative="1" as="geometry" />
        </mxCell>
        <mxCell id="Tkmjbffn96KJUI1wK2ei-9" style="edgeStyle=orthogonalEdgeStyle;rounded=0;orthogonalLoop=1;jettySize=auto;html=1;exitX=0.5;exitY=1;exitDx=0;exitDy=0;entryX=0.5;entryY=0;entryDx=0;entryDy=0;" edge="1" parent="1" source="Tkmjbffn96KJUI1wK2ei-10" target="Tkmjbffn96KJUI1wK2ei-12">
          <mxGeometry relative="1" as="geometry" />
        </mxCell>
        <mxCell id="Tkmjbffn96KJUI1wK2ei-10" value="动态代理" style="whiteSpace=wrap;html=1;rounded=0;" vertex="1" parent="1">
          <mxGeometry x="320" y="1300" width="120" height="60" as="geometry" />
        </mxCell>
        <mxCell id="Tkmjbffn96KJUI1wK2ei-11" value="cglib" style="whiteSpace=wrap;html=1;rounded=0;" vertex="1" parent="1">
          <mxGeometry x="250" y="1430" width="120" height="60" as="geometry" />
        </mxCell>
        <mxCell id="Tkmjbffn96KJUI1wK2ei-12" value="jdk" style="whiteSpace=wrap;html=1;rounded=0;" vertex="1" parent="1">
          <mxGeometry x="390" y="1430" width="120" height="60" as="geometry" />
        </mxCell>
        <mxCell id="Tkmjbffn96KJUI1wK2ei-18" value="ASM 框架&lt;br&gt;用于运行时、离线的类生成和装换，作用于已编译好的 Java Class 文件" style="whiteSpace=wrap;html=1;rounded=0;" vertex="1" parent="1">
          <mxGeometry x="120" y="1310" width="120" height="80" as="geometry" />
        </mxCell>
        <mxCell id="Tkmjbffn96KJUI1wK2ei-19" value="使用 expression 表达式&lt;br&gt;返回类型 全限定类型.方法名(参数列表类型)" style="whiteSpace=wrap;html=1;rounded=0;" vertex="1" parent="1">
          <mxGeometry x="520" y="1200" width="260" height="60" as="geometry" />
        </mxCell>
        <mxCell id="Tkmjbffn96KJUI1wK2ei-20" value="" style="edgeStyle=orthogonalEdgeStyle;rounded=0;orthogonalLoop=1;jettySize=auto;html=1;" edge="1" parent="1" source="Tkmjbffn96KJUI1wK2ei-21" target="Tkmjbffn96KJUI1wK2ei-22">
          <mxGeometry relative="1" as="geometry" />
        </mxCell>
        <mxCell id="Tkmjbffn96KJUI1wK2ei-21" value="before&lt;br&gt;after&lt;br&gt;afterThrowing&lt;br&gt;afterReturning&lt;br&gt;around" style="rounded=0;whiteSpace=wrap;html=1;" vertex="1" parent="1">
          <mxGeometry x="520" y="1290" width="240" height="80" as="geometry" />
        </mxCell>
        <mxCell id="Tkmjbffn96KJUI1wK2ei-22" value="责任链模式" style="whiteSpace=wrap;html=1;rounded=0;" vertex="1" parent="1">
          <mxGeometry x="580" y="1400" width="120" height="40" as="geometry" />
        </mxCell>
      </root>
    </mxGraphModel>
  </diagram>
  <diagram id="kH9kC6GpkNUiz-XzLysQ" name="AOP">
    <mxGraphModel dx="687" dy="1109" grid="1" gridSize="10" guides="1" tooltips="1" connect="1" arrows="1" fold="1" page="1" pageScale="1" pageWidth="4681" pageHeight="3300" math="0" shadow="0">
      <root>
        <mxCell id="LFPSVet6rqQ4Nv9f2P5c-0" />
        <mxCell id="LFPSVet6rqQ4Nv9f2P5c-1" parent="LFPSVet6rqQ4Nv9f2P5c-0" />
      </root>
    </mxGraphModel>
  </diagram>
</mxfile>
